<svg xmlns="http://www.w3.org/2000/svg" viewBox="0 0 500 440" width="500" height="440" role="img" aria-label="Radar: Skill Radar">
  <g font-family="-apple-system,'Segoe UI',Helvetica,Arial,sans-serif">
    <text x="250.0" y="64" text-anchor="middle" font-size="13" font-weight="700" fill="#e6edf3">Skill Radar</text>
    <polygon points="250.0,211.2 279.2,228.1 279.2,261.9 250.0,278.8 220.8,261.9 220.8,228.1" fill="none" stroke="#30363d" stroke-width="1"/>
    <polygon points="250.0,177.5 308.5,211.2 308.5,278.8 250.0,312.5 191.5,278.8 191.5,211.2" fill="none" stroke="#30363d" stroke-width="1"/>
    <polygon points="250.0,143.8 337.7,194.4 337.7,295.6 250.0,346.2 162.3,295.6 162.3,194.4" fill="none" stroke="#30363d" stroke-width="1"/>
    <polygon points="250.0,110.0 366.9,177.5 366.9,312.5 250.0,380.0 133.1,312.5 133.1,177.5" fill="none" stroke="#30363d" stroke-width="1"/>
    <line x1="250.0" y1="245" x2="250.0" y2="110.0" stroke="#30363d"/>
    <line x1="250.0" y1="245" x2="366.9" y2="177.5" stroke="#30363d"/>
    <line x1="250.0" y1="245" x2="366.9" y2="312.5" stroke="#30363d"/>
    <line x1="250.0" y1="245" x2="250.0" y2="380.0" stroke="#30363d"/>
    <line x1="250.0" y1="245" x2="133.1" y2="312.5" stroke="#30363d"/>
    <line x1="250.0" y1="245" x2="133.1" y2="177.5" stroke="#30363d"/>
    <polygon points="250.0,137.0 331.8,197.8 326.0,288.9 250.0,346.2 168.2,292.2 162.3,194.4" fill="#00d4ff" fill-opacity=".14" stroke="#00d4ff" stroke-width="2" stroke-linejoin="round"/>
    <circle cx="250.0" cy="137.0" r="3.5" fill="#00d4ff"/>
    <text x="250.0" y="88.0" text-anchor="middle" font-size="11" font-weight="600" fill="#e6edf3">Frontend (HTML/CSS/JS)</text>
    <circle cx="331.8" cy="197.8" r="3.5" fill="#00d4ff"/>
    <text x="386.0" y="166.5" text-anchor="start" font-size="11" font-weight="600" fill="#e6edf3">Backend (Node/PHP)</text>
    <circle cx="326.0" cy="288.9" r="3.5" fill="#00d4ff"/>
    <text x="386.0" y="323.5" text-anchor="start" font-size="11" font-weight="600" fill="#e6edf3">Android (Kotlin)</text>
    <circle cx="250.0" cy="346.2" r="3.5" fill="#00d4ff"/>
    <text x="250.0" y="402.0" text-anchor="middle" font-size="11" font-weight="600" fill="#e6edf3">Bases de datos</text>
    <circle cx="168.2" cy="292.2" r="3.5" fill="#00d4ff"/>
    <text x="114.0" y="323.5" text-anchor="end" font-size="11" font-weight="600" fill="#e6edf3">Diseño UI (Figma)</text>
    <circle cx="162.3" cy="194.4" r="3.5" fill="#00d4ff"/>
    <text x="114.0" y="166.5" text-anchor="end" font-size="11" font-weight="600" fill="#e6edf3">Git &amp; GitHub</text>
  </g>
</svg>
